<svg width="3" height="3" viewBox="0 0 3 3" fill="none" xmlns="http://www.w3.org/2000/svg">
<path opacity="0.969" d="M1.4103 3.12179e-05C1.39069 0.0004761 1.37383 0.00459331 1.36515 0.0141618L1.30356 0.147366L1.28787 0.139175L1.28672 0.141376C1.2856 0.140265 1.28439 0.139215 1.28308 0.138254C1.28177 0.137294 1.28036 0.136419 1.27886 0.135643C1.26484 0.128333 1.24826 0.132274 1.24187 0.144526C1.23549 0.156777 1.24175 0.172665 1.25575 0.179977C1.26953 0.187161 1.28568 0.183351 1.2923 0.171581L1.25918 0.243303L1.24382 0.235292L1.24261 0.237594C1.24147 0.236424 1.24023 0.235354 1.23888 0.234343C1.23753 0.233331 1.23605 0.232417 1.2345 0.231606C1.22048 0.224295 1.20395 0.228342 1.19756 0.240589C1.19118 0.252839 1.19741 0.268657 1.21139 0.275964C1.22517 0.283151 1.2413 0.279389 1.24791 0.26762L1.21699 0.334656L1.20181 0.326748L1.20053 0.329181C1.19936 0.327973 1.19808 0.326838 1.19669 0.325803C1.19531 0.324767 1.19382 0.323822 1.19222 0.322988C1.1782 0.315679 1.16169 0.319645 1.1553 0.331895C1.14892 0.344145 1.15507 0.360012 1.1691 0.367321C1.18312 0.374633 1.19965 0.370589 1.20604 0.358338L1.17097 0.434231L1.17532 0.448053L1.17773 0.472345L1.17407 0.47905L1.32099 0.555661L1.3244 0.548827L1.34569 0.536874L1.35951 0.532522L1.40165 0.46034C1.39526 0.472589 1.40141 0.488456 1.41544 0.495765C1.42946 0.503075 1.44602 0.499029 1.4524 0.486782C1.45879 0.474532 1.45256 0.458741 1.43858 0.451432C1.43537 0.449755 1.43205 0.44868 1.42873 0.448157L1.42998 0.4457L1.4148 0.43779L1.45207 0.374054C1.44621 0.386212 1.45239 0.401604 1.46615 0.40879C1.48017 0.4161 1.49667 0.412104 1.50306 0.399855C1.50945 0.387604 1.5033 0.371741 1.48927 0.36443C1.48615 0.3628 1.48292 0.361765 1.47969 0.36123L1.4809 0.358899L1.46554 0.350887L1.50537 0.282697C1.4995 0.294857 1.50568 0.310299 1.51942 0.317484C1.53344 0.324793 1.55005 0.320775 1.55643 0.308525C1.56282 0.296277 1.55655 0.280436 1.54253 0.273124C1.53953 0.271553 1.53643 0.27053 1.53332 0.269975L1.53447 0.267774L1.51881 0.25961L1.59273 0.132828C1.6004 0.0992311 1.54331 0.040191 1.50639 0.0209454C1.48794 0.0113233 1.45842 0.00325173 1.43063 0.000776135C1.42368 0.000161962 1.41684 -9.47663e-05 1.4103 3.12179e-05H1.4103ZM1.36074 0.121385C1.36335 0.121582 1.36589 0.122268 1.36819 0.123358C1.37632 0.127228 1.38149 0.136247 1.37631 0.147675L1.36254 0.178135L1.32783 0.160013L1.33996 0.134083C1.34296 0.127668 1.34773 0.123905 1.35289 0.122283C1.35547 0.121472 1.35814 0.121177 1.36074 0.121385V0.121385ZM1.31679 0.183586L1.35173 0.20181L1.31879 0.274377L1.28303 0.255743L1.31679 0.183586ZM1.494 0.19042C1.49604 0.190617 1.49804 0.191192 1.49994 0.192058C1.5097 0.196511 1.51643 0.209165 1.50892 0.22216L1.49459 0.246962L1.45988 0.228866L1.47695 0.200147C1.47994 0.195108 1.4838 0.192233 1.48786 0.191034C1.48988 0.190428 1.49196 0.190235 1.494 0.19042V0.19042ZM0.37453 0.231171C0.317999 0.231162 0.261492 0.233518 0.205157 0.238234C0.0701662 0.514966 4.69493e-06 0.818819 0 1.12672C-1.78225e-06 1.34722 0.0359821 1.56625 0.106533 1.77516C0.118512 1.71144 0.129194 1.63214 0.162206 1.56662V0.59559H0.404555L0.73424 1.23123C0.871062 0.980364 1.00811 0.729381 1.14443 0.478639C1.14532 0.470065 1.14769 0.459898 1.14842 0.449816C1.14673 0.443925 1.1444 0.438064 1.14292 0.43241C1.14364 0.430843 1.14437 0.429292 1.14509 0.427727H1.14507C1.14512 0.427569 1.14516 0.42753 1.14527 0.427452C1.1491 0.419139 1.15295 0.410831 1.15679 0.402521C1.15756 0.397716 1.15691 0.393299 1.15441 0.389158C1.15217 0.387847 1.15005 0.386335 1.14801 0.384729C0.902719 0.28344 0.639926 0.231312 0.374548 0.231304L0.37453 0.231171ZM1.44665 0.251288L1.48151 0.269462L1.44168 0.338446L1.406 0.319837L1.44665 0.251288ZM1.27203 0.279393L1.30799 0.298157L1.2772 0.366039L1.24046 0.346892L1.27203 0.279393ZM1.39266 0.342285L1.42857 0.361022L1.39131 0.425524L1.35465 0.406404L1.39266 0.342285ZM1.22941 0.370518L1.26642 0.389818L1.26342 0.396473C1.24971 0.426694 1.2102 0.411589 1.22464 0.38068L1.22941 0.370518ZM1.34132 0.428852L1.37828 0.448127L1.37267 0.457854C1.3556 0.487397 1.32065 0.463693 1.33758 0.435149L1.34131 0.428879L1.34132 0.428852ZM1.16493 0.496096L1.16331 0.499115L1.16495 0.496118L1.16493 0.496096ZM1.16331 0.499115L1.07298 0.664801L1.07413 0.665391H1.07415L1.07664 0.666671L1.22571 0.744409L1.2256 0.744527L1.22675 0.745141L1.30057 0.596912L1.31245 0.573054L1.30198 0.593584L1.15408 0.516486L1.16331 0.499115ZM1.40508 0.520667C1.4016 0.52047 1.3985 0.521021 1.39571 0.522509C1.39203 0.528806 1.38835 0.535103 1.38467 0.5414C1.38467 0.5414 1.38466 0.541377 1.38465 0.541518C1.38464 0.541525 1.38462 0.541518 1.38461 0.541518C1.3821 0.545832 1.37957 0.550149 1.37706 0.55447C1.36576 0.558001 1.35417 0.560864 1.3443 0.567703C1.33186 0.59282 1.3193 0.617901 1.30682 0.643008L1.30992 1.7568L1.20687 1.75759L1.11032 1.75836L1.10896 1.03886C1.10177 1.05311 1.0946 1.06734 1.08759 1.08168C1.08762 1.08156 1.08759 1.08156 1.08761 1.08145L1.0862 1.08426C1.08625 1.08428 1.08625 1.08428 1.08632 1.08434C1.07248 1.11219 1.05861 1.13984 1.04478 1.16768C0.977535 1.30291 0.910143 1.43805 0.843024 1.57334C1.05381 1.71784 1.06901 1.86502 1.02092 1.98173C1.01863 1.98729 1.01599 1.9927 1.01332 1.99812C1.45443 1.85161 1.83177 1.55793 2.08211 1.1663C1.91519 0.905224 1.69063 0.685897 1.42568 0.525186C1.41939 0.524792 1.41321 0.523465 1.40743 0.520961C1.40668 0.520804 1.40586 0.520726 1.40513 0.520686L1.40508 0.520667ZM1.0608 0.687173L0.748803 1.25939H0.748782L0.6745 1.39566L0.674697 1.39578L0.675091 1.39501H0.675112L0.855491 1.48905L0.904099 1.39138L0.727789 1.29946L0.739641 1.27701L0.915413 1.36862L0.974618 1.24967L0.970574 1.25753L0.799486 1.16833L0.800998 1.16546L0.801817 1.16398L0.802584 1.16255L0.808062 1.15261L0.807865 1.1525L0.811373 1.14584H0.811394L0.811748 1.14604L0.982017 1.23483L1.05092 1.09638L1.04145 1.11478L0.876533 1.02878H0.876512H0.876492L0.885169 1.01309L0.884374 1.01265L0.887905 1.006L0.888854 1.00651L1.05308 1.09213L1.10888 0.979992V0.981885L1.21542 0.767974L1.0608 0.687173ZM0.977048 0.84298L0.978714 0.843849L1.1357 0.925706L1.12413 0.94836L0.966402 0.866119L0.965122 0.865453L0.977048 0.84298ZM0.388172 0.988651L0.39127 1.41358C0.452043 1.40922 0.525459 1.4207 0.613628 1.45395C0.616061 1.44848 0.618487 1.443 0.620923 1.43754C0.62116 1.43687 0.621525 1.43633 0.621821 1.43572L0.388172 0.988651ZM0.662824 1.41701L0.641271 1.45656H0.641114L0.637275 1.46518C0.684045 1.48809 0.760045 1.52575 0.822672 1.55516L0.844147 1.51187L0.663204 1.41752L0.663362 1.41721L0.662824 1.41701ZM0.852137 1.49585L0.848041 1.50404L0.852239 1.4959L0.852137 1.49585ZM0.615777 1.50332L0.603849 1.5258L0.789067 1.62237L0.800662 1.59972L0.615777 1.50332ZM0.564686 1.5967L0.552835 1.61915L0.741738 1.71762L0.753333 1.69507L0.564686 1.5967ZM0.519611 1.67915L0.507759 1.7016L0.699939 1.80181L0.71156 1.77923L0.519611 1.67915ZM0.479987 1.75158L0.468135 1.77403L0.663233 1.87575L0.674854 1.85318L0.479987 1.75158ZM0.45654 1.79523C0.388908 1.80115 0.325638 1.84039 0.291928 1.90504C0.258789 1.96859 0.262214 2.04147 0.294515 2.09983C0.311684 2.10051 0.32886 2.10097 0.346041 2.10121C0.307527 2.05225 0.29876 1.98342 0.329429 1.92459C0.35123 1.88278 0.388589 1.85433 0.430715 1.84266L0.45654 1.79523ZM0.473639 1.85087V1.85099C0.471037 1.85099 0.468504 1.85115 0.465909 1.85131C0.455549 1.8519 0.445255 1.85357 0.435295 1.85627C0.432807 1.85694 0.430329 1.85765 0.427872 1.85845C0.425415 1.85925 0.423003 1.86016 0.420603 1.86108H0.420582C0.387968 1.87368 0.359611 1.89769 0.342179 1.93112C0.312234 1.98857 0.323547 2.05647 0.365267 2.10136C0.368356 2.10137 0.371445 2.10137 0.374533 2.10136C0.447541 2.10136 0.520496 2.09741 0.593078 2.08954C0.597942 2.08307 0.602473 2.07624 0.606337 2.06883C0.623765 2.0354 0.627265 1.99841 0.61893 1.96447H0.618909C0.617677 1.95946 0.616201 1.95451 0.614456 1.94965C0.613586 1.94722 0.612609 1.94482 0.611613 1.94243C0.608625 1.93529 0.605098 1.92832 0.601016 1.9217C0.598296 1.91728 0.595324 1.91298 0.592134 1.90885C0.585754 1.90058 0.578455 1.89292 0.570274 1.88604C0.568235 1.88431 0.566104 1.88267 0.563952 1.88105C0.562877 1.88024 0.56183 1.87948 0.560728 1.8787C0.558543 1.87714 0.55629 1.87559 0.553996 1.87414H0.553975C0.552817 1.87341 0.551636 1.87269 0.550443 1.87199C0.549266 1.8713 0.548069 1.87067 0.546861 1.86999C0.545652 1.86933 0.544459 1.86867 0.543227 1.86802L0.543109 1.86782C0.541876 1.86718 0.540593 1.86657 0.539345 1.86596C0.538105 1.86534 0.53688 1.86474 0.535632 1.86416C0.534306 1.86357 0.532967 1.86297 0.531639 1.8624C0.530439 1.86189 0.52923 1.86144 0.528029 1.86099C0.526761 1.86049 0.525565 1.86 0.524293 1.85955C0.523025 1.85911 0.521687 1.85862 0.520403 1.85822C0.517978 1.85744 0.51553 1.85671 0.513083 1.85605C0.512729 1.85589 0.512406 1.85585 0.51211 1.85577C0.504547 1.85377 0.496946 1.8524 0.489303 1.85162C0.486977 1.85139 0.484618 1.85127 0.48229 1.85106C0.481794 1.85105 0.481301 1.85106 0.480857 1.85106C0.478455 1.8509 0.476047 1.8509 0.473639 1.8509L0.473639 1.85087ZM0.652534 1.89733L0.628396 1.94571C0.642931 1.98694 0.641012 2.03384 0.619207 2.07566C0.617085 2.07973 0.614724 2.08358 0.612322 2.08739C0.629414 2.08537 0.64648 2.08313 0.663515 2.08068C0.689602 2.01959 0.683911 1.95182 0.652534 1.89733V1.89733Z" fill="white"/>
</svg>
