<?xml version="1.0" standalone="no"?>
<!DOCTYPE svg PUBLIC "-//W3C//DTD SVG 20010904//EN"
 "http://www.w3.org/TR/2001/REC-SVG-20010904/DTD/svg10.dtd">
<svg version="1.0" xmlns="http://www.w3.org/2000/svg"
 width="512.000000pt" height="512.000000pt" viewBox="0 0 512.000000 512.000000"
 preserveAspectRatio="xMidYMid meet">
<metadata>
Created by potrace 1.14, written by Peter Selinger 2001-2017
</metadata>
<g transform="translate(0.000000,512.000000) scale(0.100000,-0.100000)"
fill="#000000" stroke="none">
<path d="M2420 4404 c-166 -16 -322 -59 -451 -125 -292 -150 -475 -433 -564
-872 -14 -68 -25 -136 -25 -151 0 -21 -8 -29 -40 -42 -120 -48 -198 -248 -171
-436 19 -137 86 -250 168 -284 20 -9 34 -23 37 -37 77 -381 203 -627 442 -864
l124 -123 0 -81 0 -82 -63 5 c-74 6 -101 -3 -170 -56 -27 -20 -52 -36 -57 -34
-8 3 -250 343 -250 352 0 2 15 13 33 25 82 51 101 101 51 140 -15 12 -33 21
-40 21 -7 0 -49 -25 -93 -55 -44 -30 -84 -55 -89 -55 -5 0 -43 51 -85 113 -43
61 -115 166 -162 232 -97 138 -213 304 -318 455 -40 58 -95 136 -124 175 l-51
69 29 27 c34 32 38 70 9 99 -26 26 -54 25 -99 -2 -64 -39 -305 -209 -334 -236
-33 -31 -36 -73 -7 -102 24 -24 41 -25 82 -4 17 9 34 12 38 7 5 -4 43 -57 84
-118 110 -159 224 -323 320 -460 47 -66 119 -169 161 -230 42 -60 97 -138 122
-173 25 -35 44 -64 42 -66 -2 -1 -35 -24 -74 -51 -38 -26 -76 -55 -82 -63 -19
-23 -16 -66 5 -85 29 -26 70 -20 123 18 l48 34 70 -101 70 -101 -70 -33 c-176
-85 -312 -218 -400 -393 -68 -137 -81 -206 -87 -448 l-4 -213 1991 0 1991 0 0
179 c0 121 -5 206 -16 262 -50 267 -228 496 -475 614 -112 53 -213 75 -374 82
l-140 6 -55 50 c-30 28 -79 66 -109 86 -51 34 -58 36 -127 33 l-74 -3 0 84 0
83 66 58 c36 32 66 57 68 55 2 -2 15 -22 29 -44 41 -61 145 -162 222 -217 l70
-49 13 32 c26 63 52 184 52 243 0 56 1 58 23 52 95 -28 170 -44 217 -47 l55
-4 -3 40 c-14 173 -123 358 -279 475 -32 24 -59 45 -61 46 -1 1 6 23 16 50 16
41 58 196 78 292 3 13 16 27 32 33 37 14 100 76 124 123 109 211 44 534 -122
600 -32 13 -40 21 -40 42 0 15 -11 82 -25 150 -88 434 -272 722 -554 868 -107
55 -209 90 -326 110 -91 16 -331 28 -415 20z m-200 -1200 c254 -38 426 -38
680 0 214 33 445 45 517 27 66 -17 119 -54 143 -101 60 -117 -26 -444 -145
-548 -68 -59 -133 -76 -269 -69 -136 7 -231 31 -373 94 l-108 48 -115 0 -115
0 -110 -52 c-133 -63 -206 -82 -351 -90 -136 -7 -201 9 -269 69 -115 101 -204
428 -149 545 20 42 69 80 126 99 68 22 316 12 538 -22z"/>
<path d="M1931 3113 c-62 -33 -76 -62 -79 -176 -5 -122 7 -168 51 -201 69 -53
157 -39 204 33 21 30 23 46 23 145 0 92 -3 116 -20 143 -39 65 -117 89 -179
56z"/>
<path d="M3070 3113 c-19 -10 -45 -33 -57 -52 -21 -30 -23 -46 -23 -146 0
-100 2 -116 23 -146 46 -69 132 -85 200 -37 44 31 57 74 57 185 0 108 -14 151
-61 186 -38 27 -97 32 -139 10z"/>
</g>
</svg>
