<svg width="26" height="22" viewBox="0 0 26 22" fill="none" xmlns="http://www.w3.org/2000/svg">
<path fill-rule="evenodd" clip-rule="evenodd" d="M12.6113 0.471388C12.7878 0.165884 13.1204 -0.0155955 13.4731 0.00105502C13.7939 0.0163026 14.085 0.193515 14.2455 0.471388L20.059 10.5287L25.8722 20.5861C26.2354 21.2145 25.7815 22 25.0551 22H13.4284H1.80216C1.07574 22 0.621784 21.2145 0.98505 20.5861L6.79818 10.5287L12.6113 0.471388ZM21.9036 20.1221C22.6734 20.1221 23.1546 19.2887 22.7697 18.622L18.5203 11.2619L14.2709 3.90176C13.886 3.2351 12.9238 3.2351 12.5389 3.90177L8.28948 11.2619L4.0401 18.6221C3.6552 19.2887 4.13632 20.1221 4.90612 20.1221H13.4049H21.9036Z" fill="white"/>
<path d="M13.405 19.3671C14.2021 19.3671 14.8483 18.7209 14.8483 17.9238C14.8483 17.1266 14.2021 16.4804 13.405 16.4804C12.6079 16.4804 11.9617 17.1266 11.9617 17.9238C11.9617 18.7209 12.6079 19.3671 13.405 19.3671Z" fill="white"/>
<path d="M13.4051 6.76633C12.608 6.76624 11.9618 7.41236 11.9617 8.20949C12.4783 14.3415 11.9617 8.20949 12.4783 14.3415C12.4785 14.8532 12.8934 15.268 13.4051 15.268C13.9169 15.268 14.3318 14.8532 14.332 14.3415C14.8483 8.20949 14.332 14.3415 14.8483 8.20949C14.8482 7.41249 14.2021 6.76641 13.4051 6.76633Z" fill="white"/>
</svg>
